<?xml version="1.0" encoding="utf-8"?>
<!-- Generator: Adobe Illustrator 24.1.2, SVG Export Plug-In . SVG Version: 6.00 Build 0)  -->
<svg version="1.1" id="Layer_2_1_" xmlns="http://www.w3.org/2000/svg" xmlns:xlink="http://www.w3.org/1999/xlink" x="0px" y="0px"
	 viewBox="0 0 40.4 36.6" style="enable-background:new 0 0 40.4 36.6;" xml:space="preserve">
<style type="text/css">
	.st0{fill:#FFFFFF;}
</style>
<path id="Path_107" class="st0" d="M16.2,32.6L16.2,32.6L16.2,32.6c1.2-0.1,2.4-0.4,3.4-0.9c2.8-1.4,4.7-4.1,6.7-6.9
	c1.1-1.6,2.2-3.1,3.5-4.5l0,0c9.9-6,11.1-11,10.3-12.7l0,0c-0.4-0.9-1.2-1.6-2.1-1.7c-1.2-0.1-2.3,0.4-3,1.4c-1.8,2-3.9,3.7-6.3,4.8
	l-0.2,0.1l-0.1-0.2c-0.5-1.4-1.6-2.4-2.9-2.8l-0.1,0l0-0.1c-0.2-1-0.8-1.9-1.7-2.5c-0.7-0.4-1.4-0.6-2.2-0.6h-0.1l0-0.1
	c-0.2-0.8-0.7-1.6-1.3-2.1c-1.1-1-2.6-1.5-4-1.2c-1.4,0.2-4.3,1.3-7.8,6.3L8.1,8.9L8,8.6C7.9,8.2,7.8,7.9,7.8,7.5
	C7.1,1.3,4.5,0,2.5,0h0C1.8,0,1.2,0.2,0.8,0.7C0,1.6-0.2,3,0.1,5.2c0.3,2.2,0.4,4.4,0.3,6.6c-0.2,2.1-0.2,4.3-0.1,6.4l0,0.3
	C0.4,20.8,1,23,2,25l0,0v0c-0.2,1.7-0.7,3.3-1.5,4.9c-0.2,0.3-0.1,0.7,0.2,0.8s0.7,0.1,0.8-0.2c0,0,0,0,0,0c0.6-1.1,1-2.3,1.4-3.5
	L3,26.6l0.2,0.3c0.4,0.5,0.9,1,1.5,1.4c1.5,1.3,3.6,1.8,5.5,1.4l0.1,0l0.1,0.1c0,0,0,0,0,0.1c0,0,0,0,0,0.1c1,1.1,2.3,2,3.7,2.4
	l0.3,0.1l-0.2,0.2c-1.1,0.9-2,1.9-2.9,3c-0.2,0.3-0.1,0.7,0.1,0.9c0.1,0.1,0.2,0.1,0.4,0.1c0.2,0,0.4-0.1,0.5-0.3
	C13.5,34.9,14.8,33.6,16.2,32.6L16.2,32.6z M25.5,10.7l0-0.3l0.2,0.1c1.6,0.8,1.9,2,1.4,4.3c-0.7,2.8-4.7,7.7-6.4,7.7h-0.1
	c-0.4,0-1.4-0.2-1.9-2.2l0-0.1l0.1-0.1c0.2-0.1,0.4-0.3,0.6-0.4C22,17.8,25.1,13.7,25.5,10.7z M20.4,11.1c0.7-1.2,1.1-2.5,1.2-3.8
	V7.1l0.2,0c1.4,0,2.5,1.1,2.6,2.5c0.3,2.5-2.8,7.1-5.6,9.2c-0.6,0.6-1.4,0.9-2.3,1c-0.1,0-0.3,0-0.4-0.1c-1-0.4-1-1.9-0.9-2.5v-0.1
	l0.1,0C17.4,15.5,19.2,13.4,20.4,11.1L20.4,11.1z M11.8,29.3l-0.2-0.2l0.2-0.1c0.8-0.4,1.6-1,2.2-1.6c0.2-0.2,0.2-0.6,0-0.9
	c-0.2-0.2-0.6-0.2-0.9,0c-1.7,1.7-4.4,3.2-7.7,0.7c-3.4-2.5-3.7-6.9-3.9-8.8l0-0.3C1.4,16.1,1.5,14,1.7,12c0.1-2.3,0-4.6-0.3-6.9
	c-0.3-2.2,0-3.1,0.3-3.5c0.2-0.2,0.5-0.3,0.8-0.3h0c2.2,0,3.6,2.2,4,6.4c0.1,1,0.5,2,1,2.8l0,0c0,0,0,0,0,0c0.3,0.4,0.6,0.8,0.9,1.2
	C8.7,12,9.1,12,9.4,11.8s0.3-0.6,0.1-0.9c0,0,0,0,0,0c-0.2-0.2-0.4-0.4-0.5-0.7l-0.1-0.1L8.9,10c0.4-0.6,3.9-5.9,7.4-6.5
	c1.1-0.2,2.2,0.2,3,0.9c1.9,1.7,0.8,4.5,0,6c-1.9,3.6-5.6,6.7-7,6.4c-0.4-0.1-0.7-0.5-0.8-0.9c-0.2-0.6-0.2-1.3,0.2-1.8
	c0.5-0.7,1.1-1.6,1.7-2.3c0.8-1,1.5-2,2.1-3.1c0.1-0.3,0-0.7-0.3-0.8c-0.3-0.1-0.7,0-0.8,0.3c-0.6,1-1.3,2-2,2.9
	c-0.6,0.8-1.2,1.6-1.7,2.4c-0.6,0.9-0.7,2-0.3,3c0.3,0.8,0.9,1.4,1.7,1.6c0.6,0.1,1.2,0,1.7-0.2l0.2-0.1l0,0.2
	c0,1.2,0.6,2.2,1.6,2.8c0.6,0.2,1.2,0.3,1.8,0l0.2-0.1l0,0.2c0.5,1.8,1.5,2.8,3,2.8h0.1c1.2,0,2.8-1.2,4.5-3.2
	c1.4-1.6,2.5-3.4,3.1-5.4c0.1-0.5,0.2-1.1,0.3-1.6v-0.1l0.1,0C31.6,12.1,34,10.3,36,8c0.4-0.6,1.1-1,1.9-1c0.5,0.1,1,0.5,1.2,1
	c0.2,0.5,0.2,1.8-1.2,3.8c-1.6,2.4-4.7,5-8.7,7.4c-0.1,0-0.1,0.1-0.1,0.1c-1.3,1.5-2.5,3.1-3.7,4.7c-1.9,2.7-3.8,5.3-6.3,6.5
	c-0.9,0.5-2,0.8-3,0.8C14.4,31.2,12.9,30.5,11.8,29.3L11.8,29.3z"/>
</svg>
