<?xml version="1.0" encoding="utf-8"?>
<!-- Generator: Adobe Illustrator 24.1.2, SVG Export Plug-In . SVG Version: 6.00 Build 0)  -->
<svg version="1.1" id="Layer_1" xmlns="http://www.w3.org/2000/svg" xmlns:xlink="http://www.w3.org/1999/xlink" x="0px" y="0px"
	 viewBox="0 0 114.5 287.4" style="enable-background:new 0 0 114.5 287.4;" xml:space="preserve">
<style type="text/css">
	.st0{fill:#FFFFFF;}
</style>
<path id="Path_108" class="st0" d="M43.9,286.7H0.6v-8.3h36v-13.3h7.3V286.7z M43.9,260H0.6v-22.7h7.3v14.4h10v-11h7.3v11h11.4v-15
	h7.3V260z M0.6,205h7.3v9.7h36v8.3h-36v9.7H0.6V205z M9.1,197.8v3.6H0.6v-8.5h8.5l8.9,3.8v4.2L9.1,197.8z M12.7,168.4
	c-1.7,0.5-3.2,1.3-4.4,2.5c-0.9,1-1.4,2.3-1.4,3.6c-0.1,1.3,0.4,2.5,1.3,3.4c1,0.8,2.2,1.2,3.5,1.2c1.1,0,2.2-0.5,2.9-1.4
	c0.9-1.1,1.7-2.2,2.4-3.4c0.8-1.4,1.6-2.8,2.4-4.4c0.8-1.6,1.9-3.1,3-4.4c1.2-1.4,2.6-2.5,4.1-3.4c1.8-1,3.8-1.4,5.8-1.4
	c1.7,0,3.5,0.3,5.1,0.9c1.5,0.6,2.8,1.5,3.9,2.7c1.1,1.3,2,2.7,2.5,4.4c0.6,1.9,0.9,3.8,0.9,5.8c0.1,3.2-0.9,6.3-2.9,8.8
	c-1.9,2.5-5,4.2-9.3,5.4l-1.7-8.2c1.2-0.2,2.3-0.5,3.3-1.1c0.8-0.4,1.6-0.9,2.2-1.6c0.5-0.5,0.9-1.2,1.2-1.9
	c0.2-0.6,0.4-1.2,0.4-1.9c0-1.3-0.4-2.6-1.3-3.6c-1-1-2.4-1.6-3.8-1.5c-1.3,0-2.6,0.5-3.5,1.4c-1.1,1-2,2.2-2.7,3.4
	c-0.8,1.4-1.7,2.8-2.5,4.4c-0.8,1.6-1.7,3.1-2.8,4.4c-1,1.3-2.3,2.5-3.7,3.4c-1.5,1-3.3,1.4-5.2,1.4c-3.8,0-6.7-1.1-8.9-3.3
	c-2.2-2.2-3.2-5.4-3.2-9.8c0-1.7,0.2-3.4,0.8-5c0.5-1.4,1.2-2.7,2.2-3.9c0.9-1.1,2.1-2.1,3.3-2.8c1.3-0.8,2.7-1.3,4.2-1.7
	L12.7,168.4z M43.9,136.2H0.6v-11.6l28.4-7.5V117l-28.4-7.5V97.9h43.3v7.1H9.8v0.1l34.1,8.8v6.2L9.8,129v0.1h34.1V136.2z M27.5,81.1
	v-8.2l-17.5,4V77L27.5,81.1z M43.9,92.9L0.6,82.2V71.6l43.3-10.4v7.9l-9.1,2.1v11.5l9.1,2.3V92.9z M43.9,56.6H0.6v-8.3h17.9v-0.1
	L0.6,37.5v-9.1l17.5,11.2l25.9-12.4v9.3l-18.2,8.6l4.9,3.2h13.3V56.6z M43.9,23.3H0.6V0.6h7.3V15h10V4h7.3v11h11.4V0h7.3V23.3z
	 M110.3,266c1.2,1,2.2,2.2,3.1,3.5c0.8,1.3,1.2,2.7,1.1,4.2c0,1.9-0.2,3.7-0.8,5.5c-0.5,1.6-1.3,3.1-2.5,4.3
	c-1.3,1.3-2.8,2.2-4.5,2.8c-2.2,0.7-4.5,1.1-6.8,1H84.5c-2.3,0.1-4.6-0.3-6.8-1c-1.7-0.6-3.2-1.5-4.5-2.8c-1.2-1.2-2-2.7-2.5-4.3
	c-0.5-1.8-0.8-3.7-0.8-5.5c0-4.2,1.2-7.5,3.6-9.7c2.4-2.2,6.1-3.4,11.1-3.6v8.3c-2.8,0-4.7,0.5-5.8,1.4c-1.1,0.9-1.6,2.3-1.6,3.7
	c-0.1,1.4,0.4,2.8,1.3,4c0.8,1,2.5,1.4,4.9,1.4h17.6c2.4,0,4-0.5,4.9-1.4c0.9-1.1,1.3-2.5,1.3-4c0.1-1.4-0.5-2.8-1.6-3.7
	c-1.3-1-2.8-1.4-4.4-1.4h-2.6v5.8h-6.8v-14.1h22.2v4.3L110.3,266z M101.1,245.8c2.4,0,4-0.5,4.9-1.4c0.9-1.1,1.3-2.5,1.3-4
	c0.1-1.4-0.4-2.8-1.3-4c-0.8-1-2.5-1.4-4.9-1.4H83.4c-2.4,0-4,0.5-4.9,1.4c-0.9,1.1-1.3,2.5-1.3,4c-0.1,1.4,0.4,2.8,1.3,4
	c0.8,1,2.5,1.4,4.9,1.4H101.1z M84.5,254c-2.3,0.1-4.6-0.3-6.8-1c-1.7-0.6-3.2-1.5-4.5-2.8c-1.2-1.2-2-2.7-2.5-4.3
	c-1-3.6-1-7.4,0-11c0.5-1.6,1.3-3.1,2.5-4.3c1.3-1.3,2.8-2.2,4.5-2.8c2.2-0.7,4.5-1.1,6.8-1H100c2.3-0.1,4.6,0.3,6.8,1
	c1.7,0.6,3.2,1.5,4.5,2.8c1.2,1.2,2,2.7,2.5,4.3c1,3.6,1,7.4,0,11c-0.5,1.6-1.3,3.1-2.5,4.3c-1.3,1.3-2.8,2.2-4.5,2.8
	c-2.2,0.7-4.5,1.1-6.8,1H84.5z M101.1,212.4c2.4,0,4-0.5,4.9-1.4c1.7-2.4,1.7-5.5,0-7.9c-0.8-1-2.5-1.4-4.9-1.4H83.4
	c-2.4,0-4,0.5-4.9,1.4c-1.7,2.4-1.7,5.5,0,7.9c0.8,1,2.5,1.4,4.9,1.4H101.1z M84.5,220.7c-2.3,0.1-4.6-0.3-6.8-1
	c-1.7-0.6-3.2-1.5-4.5-2.8c-1.2-1.2-2-2.7-2.5-4.3c-1-3.6-1-7.4,0-11c0.5-1.6,1.3-3.1,2.5-4.3c1.3-1.3,2.8-2.2,4.5-2.8
	c2.2-0.7,4.5-1.1,6.8-1H100c2.3-0.1,4.6,0.3,6.8,1c1.7,0.6,3.2,1.5,4.5,2.8c1.2,1.2,2,2.7,2.5,4.3c1,3.6,1,7.4,0,11
	c-0.5,1.6-1.3,3.1-2.5,4.3c-1.3,1.3-2.8,2.2-4.5,2.8c-2.2,0.7-4.5,1.1-6.8,1H84.5z M106.6,178.3v-2.9c0.1-2-0.6-3.9-1.9-5.3
	c-1.3-1.3-3.5-1.9-6.8-1.9H86.6c-3.1,0-5.3,0.6-6.6,1.7c-1.3,1.1-2,2.9-2,5.6v2.9H106.6z M70.6,186.6v-11.5c0-2.1,0.2-4.2,0.8-6.3
	c0.5-1.7,1.4-3.3,2.6-4.7c1.3-1.3,2.9-2.4,4.7-3c2.2-0.8,4.6-1.2,6.9-1.2h13.3c2.4,0,4.7,0.4,6.9,1.2c1.8,0.6,3.4,1.6,4.7,3
	c1.2,1.3,2.1,2.9,2.6,4.7c0.6,2.1,0.8,4.2,0.8,6.3v11.5H70.6z M82.7,118.3c-1.7,0.5-3.2,1.3-4.4,2.5c-0.9,1-1.4,2.3-1.4,3.6
	c-0.1,1.3,0.4,2.5,1.3,3.4c1,0.8,2.2,1.2,3.5,1.2c1.1,0,2.2-0.5,2.8-1.4c0.9-1.1,1.7-2.2,2.4-3.4c0.8-1.4,1.6-2.8,2.4-4.4
	c0.8-1.6,1.9-3.1,3-4.4c1.2-1.4,2.6-2.5,4.1-3.4c1.8-1,3.8-1.4,5.8-1.4c1.7,0,3.5,0.3,5.1,0.9c1.5,0.6,2.8,1.5,3.9,2.7
	c1.1,1.3,2,2.7,2.5,4.4c0.6,1.9,0.9,3.8,0.9,5.8c0.1,3.2-0.9,6.3-2.9,8.8c-1.9,2.5-5,4.2-9.3,5.4l-1.7-8.2c1.2-0.2,2.3-0.5,3.3-1.1
	c0.8-0.4,1.6-0.9,2.2-1.6c1-1,1.5-2.4,1.6-3.8c0-1.3-0.4-2.6-1.3-3.6c-2-1.9-5.2-2-7.3-0.1c-1.1,1-2,2.2-2.7,3.4
	c-0.8,1.4-1.7,2.8-2.5,4.4c-0.8,1.6-1.7,3.1-2.8,4.4c-1,1.3-2.3,2.5-3.7,3.4c-1.5,1-3.3,1.4-5.2,1.4c-3.8,0-6.7-1.1-8.9-3.3
	c-2.2-2.2-3.2-5.4-3.2-9.8c0-1.7,0.2-3.4,0.8-5c1-2.8,2.9-5.2,5.5-6.7c1.3-0.8,2.7-1.3,4.2-1.6L82.7,118.3z M113.9,102.7H70.6v-8.3
	h17.3V82.7H70.6v-8.3h43.3v8.3H95.2v11.7h18.7V102.7z M70.6,52.3l8.7,1.7l0.3-0.2l-4.1-8l5.3-1.6l1.1,8.8l0.4,0.1l6.2-6.4l3.4,4.5
	l-8,3.8v0.4l8,3.8l-3.4,4.5l-6.2-6.4l-0.4,0.1l-1.1,8.8l-5.3-1.6l4.1-8l-0.3-0.2l-8.7,1.7V52.3z M70.6,22.3l8.7,1.7l0.3-0.2l-4.1-8
	l5.3-1.6l1.1,8.8l0.4,0.1l6.2-6.4l3.4,4.5l-8,3.8v0.4l8,3.8l-3.4,4.5l-6.2-6.4l-0.4,0.1l-1.1,8.8l-5.3-1.6l4.1-8l-0.3-0.2l-8.7,1.7
	V22.3z"/>
</svg>
