<svg id="Layer_2" data-name="Layer 2" xmlns="http://www.w3.org/2000/svg" width="120.051" height="119.938" viewBox="0 0 120.051 119.938">
  <path id="Path_72" data-name="Path 72" d="M680.177.737l-.928,7.294L678.06,7.88l.417-3.277-3.432-.436-.417,3.277-1.178-.151L674.378,0l1.178.15-.389,3.06,3.432.437.389-3.06Z" transform="translate(-609.657)" fill="#222534"/>
  <path id="Path_73" data-name="Path 73" d="M763.154,15.864l-1.76,7.144-1.154-.284L762,15.58Z" transform="translate(-688.226 -14.104)" fill="#222534"/>
  <path id="Path_74" data-name="Path 74" d="M801.637,35.852l-.729-3.386-.794-.284-1,2.764-1.117-.4,2.5-6.921,2.441.88a2.675,2.675,0,0,1,1.59,1.231,2.13,2.13,0,0,1,.062,1.75,2.063,2.063,0,0,1-.936,1.169,2.309,2.309,0,0,1-1.559.189l.8,3.467ZM800.4,31.384l1.231.445q1.353.489,1.784-.708a1.256,1.256,0,0,0-.008-1.006,1.51,1.51,0,0,0-.909-.688l-1.231-.445Z" transform="translate(-722.409 -25.004)" fill="#222534"/>
  <path id="Path_75" data-name="Path 75" d="M873.3,60.884l-1.022,1.982,2.406,1.242-.42.816-2.408-1.242L870.81,65.71l2.685,1.385-.444.861-3.742-1.93,3.372-6.536,3.741,1.93-.439.853Z" transform="translate(-786.964 -53.855)" fill="#222534"/>
  <path id="Path_76" data-name="Path 76" d="M970.479,127.185l-4.659,5.543-.918-.77,3.493-4.157-5.1,2.809-.8-.671,1.882-5.507-3.492,4.156-.909-.763,4.659-5.544,1.1.925-1.886,5.968,5.523-2.912Z" transform="translate(-869.045 -110.697)" fill="#222534"/>
  <path id="Path_77" data-name="Path 77" d="M1044.349,201.921l-1.681,1.464,1.782,2.042-.692.6-1.781-2.041-1.719,1.5,1.989,2.273-.73.637-2.768-3.172,5.544-4.836,2.767,3.172-.723.63Z" transform="translate(-940.354 -181.408)" fill="#222534"/>
  <path id="Path_78" data-name="Path 78" d="M1152.237,343.141l-.9.446-1.912-3.842.9-.445Z" transform="translate(-1040.549 -307.16)" fill="#222534"/>
  <path id="Path_79" data-name="Path 79" d="M1182.211,490.059l-7.229,1.361-.22-1.182,3.246-.611-.64-3.4-3.248.611-.22-1.168,7.229-1.36.22,1.167-3.031.568.64,3.4,3.031-.568Z" transform="translate(-1062.702 -438.433)" fill="#222534"/>
  <path id="Path_80" data-name="Path 80" d="M1194.723,581.1l-7.337.531-.086-1.185,7.338-.53Z" transform="translate(-1074.832 -524.987)" fill="#222534"/>
  <path id="Path_81" data-name="Path 81" d="M1188.109,628.344l2.993-1.743.026-.844-2.936-.089.036-1.188,7.353.225-.079,2.593a2.7,2.7,0,0,1-.673,1.894,2.123,2.123,0,0,1-1.644.6,2.071,2.071,0,0,1-1.4-.528,2.3,2.3,0,0,1-.663-1.421l-3.048,1.836Zm3.863-2.558-.041,1.312q-.044,1.438,1.231,1.476a1.252,1.252,0,0,0,.954-.32,1.511,1.511,0,0,0,.371-1.077l.04-1.313Z" transform="translate(-1075.529 -565.326)" fill="#222534"/>
  <path id="Path_82" data-name="Path 82" d="M1185.177,703.088l-2.2-.354-.43,2.675-.906-.146.43-2.674-2.253-.363-.479,2.984-.958-.154.669-4.156,7.263,1.167-.663,4.157-.947-.153Z" transform="translate(-1066.757 -634.507)" fill="#222534"/>
  <path id="Path_83" data-name="Path 83" d="M1140.544,813.154l-6.714-2.715.449-1.111,5.034,2.034-4.249-3.979.39-.966,5.822.082-5.033-2.028.445-1.1,6.714,2.712-.539,1.334-6.259.055,4.479,4.35Z" transform="translate(-1026.427 -727.27)" fill="#222534"/>
  <path id="Path_84" data-name="Path 84" d="M1105.331,904.379l-1.913-1.146-1.393,2.325-.786-.474,1.392-2.324-1.957-1.174-1.553,2.592-.831-.5,2.164-3.611,6.31,3.782-2.164,3.611-.822-.493Z" transform="translate(-994.254 -814.81)" fill="#222534"/>
  <path id="Path_85" data-name="Path 85" d="M1035.63,1037.621l-.7-.714,3.064-3.007.7.714Z" transform="translate(-936.896 -935.963)" fill="#222534"/>
  <path id="Path_86" data-name="Path 86" d="M877.265,1114.373l-3.545-6.446,1.05-.578,1.591,2.895,3.031-1.667-1.591-2.894,1.042-.573,3.545,6.446-1.042.568-1.486-2.7-3.031,1.667,1.486,2.7Z" transform="translate(-790.956 -1000.428)" fill="#222534"/>
  <path id="Path_87" data-name="Path 87" d="M840.586,1152.159l-2.786-6.809,1.1-.45,2.785,6.809Z" transform="translate(-758.439 -1036.449)" fill="#222534"/>
  <path id="Path_88" data-name="Path 88" d="M761.761,1160.381l2.582,2.308.811-.236-.821-2.822,1.137-.331,2.056,7.063-2.491.726a2.687,2.687,0,0,1-2.007-.056,2.114,2.114,0,0,1-1.076-1.378,2.072,2.072,0,0,1,.069-1.5,2.311,2.311,0,0,1,1.148-1.072l-2.687-2.332Zm3.629,2.883-1.261.366q-1.381.4-1.025,1.622a1.247,1.247,0,0,0,.6.808,1.509,1.509,0,0,0,1.137.021l1.261-.367Z" transform="translate(-688.443 -1049.484)" fill="#222534"/>
  <path id="Path_89" data-name="Path 89" d="M699.2,1185.274l-.34-2.2-2.677.413-.14-.906,2.674-.413-.349-2.255-2.987.461-.148-.959,4.16-.641,1.122,7.27-4.16.642-.147-.947Z" transform="translate(-629.374 -1067.11)" fill="#222534"/>
  <path id="Path_90" data-name="Path 90" d="M549.53,1191.655l.492-7.225,1.2.082-.369,5.415,2.458-5.273,1.042.07,1.732,5.559.369-5.416,1.185.081-.491,7.225-1.435-.095-2-5.932-2.741,5.61Z" transform="translate(-497.475 -1072.234)" fill="#222534"/>
  <path id="Path_91" data-name="Path 91" d="M472.389,1176.254l.493-2.174-2.642-.6.2-.894,2.642.6.5-2.225-2.946-.67.214-.947,4.105.932-1.629,7.182-4.105-.932.212-.935Z" transform="translate(-424.782 -1058.574)" fill="#222534"/>
  <path id="Path_92" data-name="Path 92" d="M340.77,1149.527l.463-.887,3.805,1.989-.458.887Z" transform="translate(-308.49 -1039.834)" fill="#222534"/>
  <path id="Path_93" data-name="Path 93" d="M176.92,1021.981l5.038-5.361.873.82-2.262,2.407,2.521,2.368,2.262-2.408.866.814-5.038,5.361-.866-.814,2.112-2.248-2.522-2.368-2.111,2.248Z" transform="translate(-160.161 -920.32)" fill="#222534"/>
  <path id="Path_94" data-name="Path 94" d="M145.66,991.807l5.612-4.757.768.906-5.612,4.757Z" transform="translate(-131.862 -893.551)" fill="#222534"/>
  <path id="Path_95" data-name="Path 95" d="M108.2,922.4l-1.392,3.171.474.7,2.428-1.658.671.981-6.07,4.149-1.468-2.142a2.682,2.682,0,0,1-.568-1.926,2.142,2.142,0,0,1,.975-1.455,2.077,2.077,0,0,1,1.441-.4,2.293,2.293,0,0,1,1.376.758l1.381-3.279Zm-1.61,4.345-.74-1.085q-.812-1.186-1.861-.474a1.256,1.256,0,0,0-.582.82,1.509,1.509,0,0,0,.334,1.089l.738,1.089Z" transform="translate(-92.564 -834.029)" fill="#222534"/>
  <path id="Path_96" data-name="Path 96" d="M59.4,868.3l1.989-1.009-1.231-2.416.817-.415,1.231,2.415,2.035-1.032-1.368-2.695.864-.439,1.906,3.753-6.561,3.331L57.18,866.04l.853-.434Z" transform="translate(-51.764 -780.989)" fill="#222534"/>
  <path id="Path_97" data-name="Path 97" d="M9.88,730.548,16.9,728.79l.291,1.162-5.262,1.32,5.778.714L17.961,733l-4.754,3.357,5.267-1.319.284,1.153-7.026,1.758-.349-1.4,5.028-3.728-6.182-.88Z" transform="translate(-8.944 -659.755)" fill="#222534"/>
  <path id="Path_98" data-name="Path 98" d="M1.225,662.744l2.221-.2-.242-2.7.913-.082.241,2.7,2.273-.2-.27-3.01.965-.086.379,4.193-7.326.661L0,659.821l.955-.085Z" transform="translate(0 -596.721)" fill="#222534"/>
  <path id="Path_99" data-name="Path 99" d="M36.277,517.16l.987.164-.7,4.235-.987-.164Z" transform="translate(-32.21 -468.172)" fill="#222534"/>
  <path id="Path_100" data-name="Path 100" d="M48.958,335l6.655,3.132-.511,1.085-2.989-1.407-1.473,3.126,2.989,1.407-.506,1.075-6.654-3.129.506-1.075,2.791,1.314,1.473-3.131-2.791-1.313Z" transform="translate(-42.068 -303.267)" fill="#222534"/>
  <path id="Path_101" data-name="Path 101" d="M91.344,294.14l6.252,3.871-.624,1.011-6.252-3.871Z" transform="translate(-82.126 -266.277)" fill="#222534"/>
  <path id="Path_102" data-name="Path 102" d="M124.354,235.944l-3.447-.347-.516.668,2.326,1.8-.727.94-5.82-4.5,1.587-2.053a2.683,2.683,0,0,1,1.656-1.137,2.129,2.129,0,0,1,1.684.479,2.066,2.066,0,0,1,.825,1.249,2.311,2.311,0,0,1-.3,1.542l3.545.3Zm-4.63-.2.8-1.042q.879-1.137-.126-1.915a1.246,1.246,0,0,0-.96-.3,1.5,1.5,0,0,0-.934.655l-.8,1.042Z" transform="translate(-105.166 -209.381)" fill="#222534"/>
  <path id="Path_103" data-name="Path 103" d="M172.686,169.811l1.574,1.579,1.914-1.913.648.65-1.915,1.913,1.61,1.616,2.14-2.133.685.686-2.978,2.972-5.194-5.21L174.148,167l.677.678Z" transform="translate(-154.956 -151.181)" fill="#222534"/>
  <path id="Path_104" data-name="Path 104" d="M269.206,75.36l3.857,6.13-1.014.638-2.891-4.6,1.119,5.71-.882.555-4.673-3.474,2.891,4.6-1.005.637-3.857-6.129,1.217-.765,5.109,3.618-1.087-6.153Z" transform="translate(-237.861 -68.221)" fill="#222534"/>
  <path id="Path_105" data-name="Path 105" d="M365.639,42.764l.883,2.049,2.489-1.069.362.842-2.491,1.069.9,2.1,2.776-1.194.379.89-3.868,1.662-2.9-6.76,3.868-1.661.379.881Z" transform="translate(-329.674 -36.836)" fill="#222534"/>
  <path id="Path_106" data-name="Path 106" d="M519.546,35.54l.148.991-4.246.634-.148-.991Z" transform="translate(-466.488 -32.173)" fill="#222534"/>
</svg>
