<svg id="Layer_2" data-name="Layer 2" xmlns="http://www.w3.org/2000/svg" width="40.399" height="36.572" viewBox="0 0 40.399 36.572">
  <path id="Path_107" data-name="Path 107" d="M16.241,32.545l.044-.034h.055a8.269,8.269,0,0,0,3.266-.9c2.791-1.384,4.707-4.06,6.732-6.9a48.024,48.024,0,0,1,3.488-4.5l.039-.032c9.915-6.018,11.1-10.961,10.347-12.734h0a2.825,2.825,0,0,0-2.131-1.718,3.241,3.241,0,0,0-2.987,1.432A20.307,20.307,0,0,1,28.752,12l-.185.079-.055-.194a4.463,4.463,0,0,0-2.948-2.8l-.085-.035-.019-.088a3.861,3.861,0,0,0-1.663-2.5,4.016,4.016,0,0,0-2.189-.628H21.47l-.035-.134A4.2,4.2,0,0,0,20.11,3.56a4.734,4.734,0,0,0-4.03-1.236c-1.412.221-4.285,1.331-7.757,6.287l-.2.281L8.008,8.56a5.392,5.392,0,0,1-.242-1.075C7.06,1.292,4.511-.007,2.5-.007H2.47A2.182,2.182,0,0,0,.754.725c-.722.83-.92,2.269-.623,4.505a35.768,35.768,0,0,1,.3,6.615,42.724,42.724,0,0,0-.1,6.417l.023.332a15.867,15.867,0,0,0,1.607,6.414l.019.037v.041A13.05,13.05,0,0,1,.493,29.939a.617.617,0,1,0,1.095.568,18.512,18.512,0,0,0,1.372-3.541l.081-.325.222.252A9.18,9.18,0,0,0,4.732,28.25a6.627,6.627,0,0,0,5.5,1.37l.124-.026.065.109c.011.018.019.035.03.051a.334.334,0,0,0,.039.065,8.564,8.564,0,0,0,3.707,2.433l.307.094-.244.21a20.685,20.685,0,0,0-2.913,3.022.62.62,0,0,0,.131.865.609.609,0,0,0,.365.12.618.618,0,0,0,.516-.251,21.494,21.494,0,0,1,3.884-3.767ZM25.523,10.67l.035-.251.222.118c1.589.84,1.942,1.96,1.412,4.276-.667,2.839-4.707,7.669-6.449,7.713h-.12c-.448,0-1.412-.154-1.857-2.2l-.026-.122.1-.065c.233-.145.438-.284.628-.425C22.049,17.811,25.1,13.719,25.523,10.67Zm-5.12.406a9.447,9.447,0,0,0,1.178-3.843V7.056l.177.009A2.644,2.644,0,0,1,24.321,9.57c.318,2.472-2.807,7.1-5.588,9.157a4.315,4.315,0,0,1-2.258,1.013.978.978,0,0,1-.394-.074c-.959-.431-.962-1.9-.918-2.514v-.085l.071-.048a17.732,17.732,0,0,0,5.173-5.944ZM11.753,29.33l-.177-.177.221-.113A8.8,8.8,0,0,0,14.013,27.4a.624.624,0,0,0-.883-.883c-1.672,1.674-4.357,3.155-7.665.719-3.409-2.512-3.741-6.885-3.884-8.753l-.026-.342a41.605,41.605,0,0,1,.1-6.193,37.067,37.067,0,0,0-.3-6.9C1.058,2.8,1.371,1.9,1.685,1.536a.944.944,0,0,1,.786-.307h.021c2.164,0,3.563,2.212,4.043,6.4a6.742,6.742,0,0,0,1.006,2.825l.012.021a.194.194,0,0,0,.016.025,8.456,8.456,0,0,0,.939,1.218.618.618,0,1,0,.906-.84,7.6,7.6,0,0,1-.546-.664l-.071-.1.065-.1c.39-.6,3.907-5.914,7.4-6.463a3.534,3.534,0,0,1,3.022.95c1.884,1.654.821,4.477.018,6.013-1.9,3.637-5.635,6.733-7.037,6.385a1.346,1.346,0,0,1-.847-.883,2.037,2.037,0,0,1,.177-1.838c.487-.722,1.119-1.589,1.675-2.341a27.93,27.93,0,0,0,2.083-3.059.618.618,0,1,0-1.118-.53,29.883,29.883,0,0,1-1.968,2.869c-.595.81-1.211,1.649-1.7,2.378a3.238,3.238,0,0,0-.3,2.975A2.537,2.537,0,0,0,11.975,18.1a2.879,2.879,0,0,0,1.712-.222l.221-.087.019.237A3.192,3.192,0,0,0,15.571,20.8a2.562,2.562,0,0,0,1.845.032l.177-.053.048.177c.494,1.845,1.547,2.825,3.042,2.825h.087c1.156-.03,2.842-1.236,4.514-3.236a15.311,15.311,0,0,0,3.109-5.43,10.039,10.039,0,0,0,.258-1.622v-.115l.109-.039A20.786,20.786,0,0,0,36.04,7.962a2.25,2.25,0,0,1,1.857-1,1.642,1.642,0,0,1,1.178.98c.2.468.168,1.8-1.211,3.822-1.629,2.39-4.652,4.959-8.741,7.429a.577.577,0,0,0-.134.111,48.5,48.5,0,0,0-3.658,4.694c-1.942,2.713-3.762,5.272-6.278,6.52a6.772,6.772,0,0,1-3.015.782,6.2,6.2,0,0,1-4.29-1.965Z" transform="translate(0.001 0.009)" fill="#222534"/>
</svg>
